<svg width="16" height="16" viewBox="0 0 16 16" fill="none" xmlns="http://www.w3.org/2000/svg">
<g clip-path="url(#clip0_18_1200)">
<path d="M12.6668 -0.000732422C12.6668 -0.000732422 12.6668 -0.000732422 12.6668 -0.000732422H3.33346C2.44973 0.00032615 1.60249 0.351856 0.977602 0.976748C0.35271 1.60164 0.00118064 2.44887 0.00012207 3.3326L0.00012207 12.6659C0.00118064 13.5497 0.35271 14.3969 0.977602 15.0218C1.60249 15.6467 2.44973 15.9982 3.33346 15.9993H12.6668C13.5505 15.9982 14.3978 15.6467 15.0226 15.0218C15.6475 14.3969 15.9991 13.5497 16.0001 12.6659V3.3326C15.9991 2.44887 15.6475 1.60164 15.0226 0.976748C14.3978 0.351856 13.5505 0.00032615 12.6668 -0.000732422C12.6668 -0.000732422 12.6668 -0.000732422 12.6668 -0.000732422ZM14.6668 12.6659C14.6668 13.1964 14.4561 13.7051 14.081 14.0801C13.7059 14.4552 13.1972 14.6659 12.6668 14.6659H3.33346C2.80302 14.6659 2.29431 14.4552 1.91924 14.0801C1.54417 13.7051 1.33346 13.1964 1.33346 12.6659V3.3326C1.33346 2.80217 1.54417 2.29346 1.91924 1.91839C2.29431 1.54331 2.80302 1.3326 3.33346 1.3326H12.6668C13.1972 1.3326 13.7059 1.54331 14.081 1.91839C14.4561 2.29346 14.6668 2.80217 14.6668 3.3326V12.6659Z" fill="url(#paint0_linear_18_1200)"/>
<path d="M6.22208 10.612L3.60942 7.9993C3.4844 7.87432 3.31486 7.80411 3.13808 7.80411C2.96131 7.80411 2.79177 7.87432 2.66675 7.9993C2.54177 8.12431 2.47156 8.29385 2.47156 8.47063C2.47156 8.6474 2.54177 8.81694 2.66675 8.94196L5.27942 11.5546C5.40323 11.6785 5.55024 11.7768 5.71205 11.8438C5.87385 11.9108 6.04727 11.9453 6.22242 11.9453C6.39756 11.9453 6.57098 11.9108 6.73279 11.8438C6.89459 11.7768 7.0416 11.6785 7.16542 11.5546L13.3334 5.38663C13.4584 5.26162 13.5286 5.09208 13.5286 4.9153C13.5286 4.73853 13.4584 4.56899 13.3334 4.44397C13.2084 4.31899 13.0389 4.24878 12.8621 4.24878C12.6853 4.24878 12.5158 4.31899 12.3907 4.44397L6.22208 10.612Z" fill="url(#paint1_linear_18_1200)"/>
</g>
<defs>
<linearGradient id="paint0_linear_18_1200" x1="8.00012" y1="-0.000732422" x2="8.00012" y2="15.9993" gradientUnits="userSpaceOnUse">
<stop stop-color="#E95F3A"/>
<stop offset="1" stop-color="#AF307B"/>
</linearGradient>
<linearGradient id="paint1_linear_18_1200" x1="8.00008" y1="4.24878" x2="8.00008" y2="11.9453" gradientUnits="userSpaceOnUse">
<stop stop-color="#E95F3A"/>
<stop offset="1" stop-color="#AF307B"/>
</linearGradient>
<clipPath id="clip0_18_1200">
<rect width="16" height="16" fill="white" transform="translate(0.00012207 -0.000732422)"/>
</clipPath>
</defs>
</svg>
