<svg width="86" height="86" viewBox="0 0 86 86" fill="none" xmlns="http://www.w3.org/2000/svg">
<g filter="url(#filter0_d_18_1179)">
<g clip-path="url(#clip0_18_1179)">
<path d="M63.6001 35.8002L24.9001 16.4502C24.378 16.2084 23.8037 16.1009 23.2295 16.1376C22.6553 16.1744 22.0994 16.3541 21.6124 16.6606C21.1254 16.967 20.7228 17.3904 20.4412 17.8922C20.1596 18.394 20.008 18.9582 20.0001 19.5336V58.2169C19.9952 58.8075 20.1428 59.3894 20.4285 59.9063C20.7143 60.4231 21.1285 60.8576 21.6312 61.1676C22.1339 61.4776 22.7081 61.6527 23.2983 61.6759C23.8884 61.6992 24.4746 61.5698 25.0001 61.3002L63.6001 41.9502C64.1719 41.6632 64.6526 41.2229 64.9885 40.6784C65.3245 40.1339 65.5024 39.5067 65.5024 38.8669C65.5024 38.2271 65.3245 37.5999 64.9885 37.0555C64.6526 36.511 64.1719 36.0706 63.6001 35.7836V35.8002Z" fill="white"/>
</g>
</g>
<defs>
<filter id="filter0_d_18_1179" x="-10" y="-6.99976" width="100" height="100" filterUnits="userSpaceOnUse" color-interpolation-filters="sRGB">
<feFlood flood-opacity="0" result="BackgroundImageFix"/>
<feColorMatrix in="SourceAlpha" type="matrix" values="0 0 0 0 0 0 0 0 0 0 0 0 0 0 0 0 0 0 127 0" result="hardAlpha"/>
<feOffset dy="4"/>
<feGaussianBlur stdDeviation="10"/>
<feComposite in2="hardAlpha" operator="out"/>
<feColorMatrix type="matrix" values="0 0 0 0 0 0 0 0 0 0 0 0 0 0 0 0 0 0 0.1 0"/>
<feBlend mode="normal" in2="BackgroundImageFix" result="effect1_dropShadow_18_1179"/>
<feBlend mode="normal" in="SourceGraphic" in2="effect1_dropShadow_18_1179" result="shape"/>
</filter>
<clipPath id="clip0_18_1179">
<rect x="10" y="9.00024" width="60" height="60" rx="30" fill="white"/>
</clipPath>
</defs>
</svg>
