<svg width="75" height="66" viewBox="0 0 75 66" fill="none" xmlns="http://www.w3.org/2000/svg">
<path d="M70.0679 0.020752H4.93213C2.21265 0.020752 0 2.63769 0 5.85407V59.1874C0 62.404 2.21265 65.0208 4.93213 65.0208H70.0679C72.7875 65.0208 75 62.4038 75 59.1874V5.85407C75 2.63769 72.7874 0.020752 70.0679 0.020752ZM17.5365 62.243H4.93213C3.50757 62.243 2.34858 60.8723 2.34858 59.1874V5.85407C2.34858 4.16922 3.50757 2.79847 4.93213 2.79847H17.5365V62.243ZM72.6514 59.1876C72.6514 60.8725 71.4924 62.2432 70.0679 62.2432H19.8853V2.79864H70.0679C71.4924 2.79864 72.6514 4.16939 72.6514 5.85424V59.1876Z" fill="url(#paint0_linear_158_864)"/>
<path d="M28.7317 5.94678H23.7212C23.0728 5.94678 22.5469 6.56857 22.5469 7.33572C22.5469 8.10287 23.0726 8.72466 23.7212 8.72466H28.7317C29.3802 8.72466 29.9061 8.10287 29.9061 7.33572C29.9061 6.56857 29.3802 5.94678 28.7317 5.94678Z" fill="url(#paint1_linear_158_864)"/>
<path d="M13.7004 5.94678H6.18474C5.53626 5.94678 5.01038 6.56857 5.01038 7.33572C5.01038 8.10287 5.53611 8.72466 6.18474 8.72466H13.7004C14.3489 8.72466 14.8748 8.10287 14.8748 7.33572C14.8748 6.56857 14.349 5.94678 13.7004 5.94678Z" fill="url(#paint2_linear_158_864)"/>
<path d="M13.7004 20.7617H6.18474C5.53626 20.7617 5.01038 21.3835 5.01038 22.1507C5.01038 22.9178 5.53611 23.5396 6.18474 23.5396H13.7004C14.3489 23.5396 14.8748 22.9178 14.8748 22.1507C14.8748 21.3835 14.349 20.7617 13.7004 20.7617Z" fill="url(#paint3_linear_158_864)"/>
<path d="M13.7004 32.6133H6.18474C5.53626 32.6133 5.01038 33.2351 5.01038 34.0022C5.01038 34.7694 5.53611 35.3912 6.18474 35.3912H13.7004C14.3489 35.3912 14.8748 34.7694 14.8748 34.0022C14.8748 33.2351 14.349 32.6133 13.7004 32.6133Z" fill="url(#paint4_linear_158_864)"/>
<path d="M13.7004 44.4653H6.18474C5.53626 44.4653 5.01038 45.0871 5.01038 45.8543C5.01038 46.6214 5.53611 47.2432 6.18474 47.2432H13.7004C14.3489 47.2432 14.8748 46.6214 14.8748 45.8543C14.8748 45.0871 14.349 44.4653 13.7004 44.4653Z" fill="url(#paint5_linear_158_864)"/>
<path d="M13.7004 26.6877H6.18474C5.53626 26.6877 5.01038 27.3095 5.01038 28.0767C5.01038 28.8438 5.53611 29.4656 6.18474 29.4656H13.7004C14.3489 29.4656 14.8748 28.8438 14.8748 28.0767C14.8748 27.3095 14.349 26.6877 13.7004 26.6877Z" fill="url(#paint6_linear_158_864)"/>
<path d="M13.7004 38.5393H6.18474C5.53626 38.5393 5.01038 39.1611 5.01038 39.9282C5.01038 40.6954 5.53611 41.3172 6.18474 41.3172H13.7004C14.3489 41.3172 14.8748 40.6954 14.8748 39.9282C14.8748 39.1611 14.349 38.5393 13.7004 38.5393Z" fill="url(#paint7_linear_158_864)"/>
<path d="M11.1952 53.3545H6.18474C5.53626 53.3545 5.01038 53.9763 5.01038 54.7434C5.01038 55.5104 5.53611 56.1324 6.18474 56.1324H11.1952C11.8437 56.1324 12.3696 55.5106 12.3696 54.7434C12.3696 53.9763 11.8437 53.3545 11.1952 53.3545Z" fill="url(#paint8_linear_158_864)"/>
<path d="M11.1952 11.8728H6.18474C5.53626 11.8728 5.01038 12.4946 5.01038 13.2617C5.01038 14.0289 5.53611 14.6507 6.18474 14.6507H11.1952C11.8437 14.6507 12.3696 14.0289 12.3696 13.2617C12.3696 12.4946 11.8437 11.8728 11.1952 11.8728Z" fill="url(#paint9_linear_158_864)"/>
<path d="M38.7526 5.94678H33.7421C33.0936 5.94678 32.5677 6.56857 32.5677 7.33572C32.5677 8.10287 33.0935 8.72466 33.7421 8.72466H38.7526C39.4011 8.72466 39.927 8.10287 39.927 7.33572C39.927 6.56857 39.4012 5.94678 38.7526 5.94678Z" fill="url(#paint10_linear_158_864)"/>
<path d="M48.7735 5.94678H43.763C43.1145 5.94678 42.5886 6.56857 42.5886 7.33572C42.5886 8.10287 43.1144 8.72466 43.763 8.72466H48.7735C49.422 8.72466 49.9478 8.10287 49.9478 7.33572C49.9478 6.56857 49.4221 5.94678 48.7735 5.94678Z" fill="url(#paint11_linear_158_864)"/>
<path d="M58.7945 5.94678H53.784C53.1355 5.94678 52.6096 6.56857 52.6096 7.33572C52.6096 8.10287 53.1354 8.72466 53.784 8.72466H58.7945C59.443 8.72466 59.9688 8.10287 59.9688 7.33572C59.9688 6.56857 59.443 5.94678 58.7945 5.94678Z" fill="url(#paint12_linear_158_864)"/>
<path d="M68.8152 5.94678H63.8047C63.1562 5.94678 62.6304 6.56857 62.6304 7.33572C62.6304 8.10287 63.1561 8.72466 63.8047 8.72466H68.8152C69.4637 8.72466 69.9896 8.10287 69.9896 7.33572C69.9896 6.56857 69.4637 5.94678 68.8152 5.94678Z" fill="url(#paint13_linear_158_864)"/>
<path d="M36.953 37.3367C36.4345 36.8761 35.6982 36.9998 35.3089 37.6131C34.3368 39.1434 32.8526 40.0211 31.2369 40.0211C28.431 40.0211 26.1482 37.3211 26.1482 34.0025C26.1482 30.6839 28.431 27.984 31.2369 27.984C32.8538 27.984 34.3388 28.8629 35.3106 30.3951C35.6998 31.0086 36.4359 31.1332 36.9546 30.6727C37.4733 30.2122 37.5783 29.3418 37.1893 28.7283C35.7694 26.4899 33.6 25.2063 31.2367 25.2063C27.1359 25.2063 23.7994 29.1524 23.7994 34.0025C23.7994 38.8527 27.1359 42.7988 31.2367 42.7988C33.5981 42.7988 35.7666 41.5167 37.1865 39.2813C37.5763 38.668 37.4717 37.7974 36.953 37.3367Z" fill="url(#paint14_linear_158_864)"/>
<path d="M48.5376 36.7476C50.771 36.1916 52.4531 33.8439 52.4531 31.0394C52.4531 27.8228 50.2404 25.2061 47.5209 25.2061H41.2579C40.6094 25.2061 40.0835 25.8278 40.0835 26.595V41.4098C40.0835 42.1767 40.6092 42.7987 41.2579 42.7987C41.9065 42.7987 42.4322 42.1769 42.4322 41.4098V36.8727H45.6813L49.0867 42.2431C49.3176 42.6069 49.6702 42.7987 50.0272 42.7987C50.2724 42.7987 50.5196 42.7081 50.7309 42.521C51.2496 42.0608 51.3549 41.1901 50.9657 40.5766L48.5376 36.7476ZM42.4321 34.0951V27.9841H47.5208C48.9454 27.9841 50.1043 29.3549 50.1043 31.0397C50.1043 32.7246 48.9454 34.0953 47.5208 34.0953H42.4321V34.0951Z" fill="url(#paint15_linear_158_864)"/>
<path d="M68.7311 41.2714L67.4786 26.4569C67.4246 25.8202 67.0101 25.3094 66.4744 25.2199C65.9393 25.1301 65.4206 25.4851 65.2198 26.0793L61.2996 37.6703L57.3793 26.0793C57.1784 25.4853 56.6604 25.131 56.1247 25.2199C55.589 25.3094 55.1745 25.8202 55.1205 26.4569L53.868 41.2716C53.8035 42.035 54.2743 42.7155 54.9197 42.7919C55.5644 42.8681 56.1404 42.3113 56.2051 41.5479L56.9805 32.3784L60.2094 41.9256C60.3878 42.4528 60.8194 42.7986 61.2997 42.7986C61.78 42.7986 62.2117 42.4528 62.39 41.9256L65.6189 32.3784L66.3943 41.5479C66.4549 42.2642 66.9653 42.7986 67.5615 42.7986C67.6006 42.7986 67.64 42.7964 67.6797 42.7915C68.3248 42.7155 68.7956 42.0348 68.7311 41.2714Z" fill="url(#paint16_linear_158_864)"/>
<defs>
<linearGradient id="paint0_linear_158_864" x1="2" y1="36.6605" x2="79.0037" y2="35.8149" gradientUnits="userSpaceOnUse">
<stop stop-color="#E55C3E"/>
<stop offset="1" stop-color="#A42887"/>
</linearGradient>
<linearGradient id="paint1_linear_158_864" x1="22.7431" y1="7.51264" x2="30.2951" y2="7.32224" gradientUnits="userSpaceOnUse">
<stop stop-color="#E55C3E"/>
<stop offset="1" stop-color="#A42887"/>
</linearGradient>
<linearGradient id="paint2_linear_158_864" x1="5.27343" y1="7.51264" x2="15.391" y2="7.17073" gradientUnits="userSpaceOnUse">
<stop stop-color="#E55C3E"/>
<stop offset="1" stop-color="#A42887"/>
</linearGradient>
<linearGradient id="paint3_linear_158_864" x1="5.27343" y1="22.3276" x2="15.391" y2="21.9857" gradientUnits="userSpaceOnUse">
<stop stop-color="#E55C3E"/>
<stop offset="1" stop-color="#A42887"/>
</linearGradient>
<linearGradient id="paint4_linear_158_864" x1="5.27343" y1="34.1791" x2="15.391" y2="33.8372" gradientUnits="userSpaceOnUse">
<stop stop-color="#E55C3E"/>
<stop offset="1" stop-color="#A42887"/>
</linearGradient>
<linearGradient id="paint5_linear_158_864" x1="5.27343" y1="46.0312" x2="15.391" y2="45.6893" gradientUnits="userSpaceOnUse">
<stop stop-color="#E55C3E"/>
<stop offset="1" stop-color="#A42887"/>
</linearGradient>
<linearGradient id="paint6_linear_158_864" x1="5.27343" y1="28.2536" x2="15.391" y2="27.9117" gradientUnits="userSpaceOnUse">
<stop stop-color="#E55C3E"/>
<stop offset="1" stop-color="#A42887"/>
</linearGradient>
<linearGradient id="paint7_linear_158_864" x1="5.27343" y1="40.1052" x2="15.391" y2="39.7633" gradientUnits="userSpaceOnUse">
<stop stop-color="#E55C3E"/>
<stop offset="1" stop-color="#A42887"/>
</linearGradient>
<linearGradient id="paint8_linear_158_864" x1="5.20662" y1="54.9204" x2="12.7586" y2="54.73" gradientUnits="userSpaceOnUse">
<stop stop-color="#E55C3E"/>
<stop offset="1" stop-color="#A42887"/>
</linearGradient>
<linearGradient id="paint9_linear_158_864" x1="5.20662" y1="13.4387" x2="12.7586" y2="13.2483" gradientUnits="userSpaceOnUse">
<stop stop-color="#E55C3E"/>
<stop offset="1" stop-color="#A42887"/>
</linearGradient>
<linearGradient id="paint10_linear_158_864" x1="32.764" y1="7.51264" x2="40.3159" y2="7.32224" gradientUnits="userSpaceOnUse">
<stop stop-color="#E55C3E"/>
<stop offset="1" stop-color="#A42887"/>
</linearGradient>
<linearGradient id="paint11_linear_158_864" x1="42.7849" y1="7.51264" x2="50.3368" y2="7.32224" gradientUnits="userSpaceOnUse">
<stop stop-color="#E55C3E"/>
<stop offset="1" stop-color="#A42887"/>
</linearGradient>
<linearGradient id="paint12_linear_158_864" x1="52.8059" y1="7.51264" x2="60.3578" y2="7.32224" gradientUnits="userSpaceOnUse">
<stop stop-color="#E55C3E"/>
<stop offset="1" stop-color="#A42887"/>
</linearGradient>
<linearGradient id="paint13_linear_158_864" x1="62.8266" y1="7.51264" x2="70.3786" y2="7.32224" gradientUnits="userSpaceOnUse">
<stop stop-color="#E55C3E"/>
<stop offset="1" stop-color="#A42887"/>
</linearGradient>
<linearGradient id="paint14_linear_158_864" x1="24.1628" y1="35.123" x2="38.1525" y2="35.0199" gradientUnits="userSpaceOnUse">
<stop stop-color="#E55C3E"/>
<stop offset="1" stop-color="#A42887"/>
</linearGradient>
<linearGradient id="paint15_linear_158_864" x1="40.4134" y1="35.1228" x2="53.1144" y2="35.0378" gradientUnits="userSpaceOnUse">
<stop stop-color="#E55C3E"/>
<stop offset="1" stop-color="#A42887"/>
</linearGradient>
<linearGradient id="paint16_linear_158_864" x1="54.2587" y1="35.1229" x2="69.532" y2="35" gradientUnits="userSpaceOnUse">
<stop stop-color="#E55C3E"/>
<stop offset="1" stop-color="#A42887"/>
</linearGradient>
</defs>
</svg>
