<svg width="70" height="69" viewBox="0 0 70 69" fill="none" xmlns="http://www.w3.org/2000/svg">
<mask id="mask0_353_2005" style="mask-type:alpha" maskUnits="userSpaceOnUse" x="0" y="0" width="70" height="69">
<g clip-path="url(#clip0_353_2005)">
<path d="M61.25 51.75C61.2763 52.8985 61.0696 54.0407 60.642 55.1095C60.2143 56.1783 59.5744 57.152 58.7597 57.9736C57.945 58.7953 56.972 59.4481 55.8978 59.894C54.8236 60.3398 53.6699 60.5697 52.5044 60.5699C51.3389 60.5702 50.185 60.341 49.1106 59.8957C48.0362 59.4504 47.0629 58.7979 46.2478 57.9767C45.4327 57.1555 44.7922 56.1821 44.364 55.1135C43.9359 54.045 43.7286 52.9029 43.7543 51.7543C43.8049 49.5007 44.7484 47.3562 46.383 45.7799C48.0176 44.2035 50.2132 43.3205 52.5 43.3199C54.7868 43.3194 56.9829 44.2013 58.6183 45.7768C60.2536 47.3524 61.1983 49.4964 61.25 51.75V51.75Z" fill="black"/>
<path d="M51.1875 69C47.6875 69 44.1875 68.1375 41.125 65.9813L14 51.75C11.8125 50.025 10.0625 49.1625 8.3125 47.4375C3.0625 42.2625 0 34.9313 0 27.6C0 20.2688 3.0625 13.3688 8.3125 8.19375C13.5625 3.01875 20.5625 0 28 0C35.4375 0 42.4375 3.01875 48.125 8.19375C49.875 9.91875 50.75 11.2125 52.5 13.3687L67.8125 40.9688C72.1875 48.3 70.875 57.3562 64.75 63.3937C60.8125 67.275 56.4375 69 51.1875 69V69ZM28 4.3125C21.875 4.3125 15.75 6.9 11.375 11.2125C7 15.525 4.375 21.5625 4.375 27.6C4.375 34.0688 7 39.675 11.375 43.9875C12.6875 45.2812 14 46.1437 16.1875 47.4375L43.75 62.1C46.375 63.825 49 64.2562 51.625 64.2562C55.5625 64.2562 59.0625 62.9625 61.6875 59.9437C66.5 55.2 67.375 48.3 63.875 42.6937L48.5625 15.0938C47.25 13.3687 46.375 12.075 45.0625 10.7812C40.25 6.9 34.5625 4.3125 28 4.3125Z" fill="black"/>
<path d="M48.125 30.1875V25.875L42 23.7188C41.5625 22.8562 41.5625 22.425 41.125 21.5625L43.75 15.9563L40.6875 12.9375L35 15.525C34.125 15.0937 33.6875 15.0938 32.8125 14.6625L30.625 8.625H26.25L24.0625 14.6625C23.1875 15.0938 22.75 15.0937 21.875 15.525L16.1875 12.9375L13.125 15.9563L15.75 21.5625C15.3125 22.425 15.3125 22.8562 14.875 23.7188L8.75 25.875V30.1875L14.875 32.3438C15.3125 33.2063 15.3125 33.6375 15.75 34.5L13.125 40.1063L16.1875 43.125L21.875 40.5375C22.75 40.9687 23.1875 41.4 24.0625 41.4L26.25 47.4375H30.625L32.8125 41.4C33.6875 40.9688 34.125 40.9687 35 40.5375L40.6875 43.125L43.75 40.1063L41.125 34.5C41.5625 33.6375 42 33.2063 42 32.3438L48.125 30.1875ZM28.4375 34.5C24.9375 34.5 21.875 31.4813 21.875 28.0312C21.875 24.5812 24.9375 21.5625 28.4375 21.5625C31.9375 21.5625 35 24.5812 35 28.0312C35 31.4813 31.9375 34.5 28.4375 34.5Z" fill="black"/>
</g>
</mask>
<g mask="url(#mask0_353_2005)">
<rect x="-15" y="-16" width="100" height="100" rx="5" fill="url(#paint0_linear_353_2005)"/>
</g>
<defs>
<linearGradient id="paint0_linear_353_2005" x1="-15" y1="84" x2="85" y2="84" gradientUnits="userSpaceOnUse">
<stop stop-color="#ED6235"/>
<stop offset="0.963542" stop-color="#9D228E"/>
</linearGradient>
<clipPath id="clip0_353_2005">
<rect width="70" height="69" fill="white"/>
</clipPath>
</defs>
</svg>
