<svg width="140" height="140" viewBox="0 0 140 140" fill="none" xmlns="http://www.w3.org/2000/svg">
<circle cx="70" cy="66.0002" r="65" transform="rotate(-180 70 66.0002)" fill="url(#paint0_linear_18_1176)"/>
<g filter="url(#filter0_d_18_1176)">
<circle cx="70" cy="66.0002" r="50" transform="rotate(-180 70 66.0002)" fill="url(#paint1_linear_18_1176)" shape-rendering="crispEdges"/>
</g>
<g filter="url(#filter1_d_18_1176)">
<g clip-path="url(#clip0_18_1176)">
<path d="M93.6001 62.8002L54.9001 43.4502C54.378 43.2084 53.8037 43.1009 53.2295 43.1376C52.6553 43.1744 52.0994 43.3541 51.6124 43.6606C51.1254 43.967 50.7228 44.3904 50.4412 44.8922C50.1596 45.394 50.008 45.9582 50.0001 46.5336V85.2169C49.9952 85.8075 50.1428 86.3894 50.4285 86.9063C50.7143 87.4231 51.1285 87.8576 51.6312 88.1676C52.1339 88.4776 52.7081 88.6527 53.2983 88.6759C53.8884 88.6992 54.4746 88.5698 55.0001 88.3002L93.6001 68.9502C94.1719 68.6632 94.6526 68.2229 94.9885 67.6784C95.3245 67.1339 95.5024 66.5067 95.5024 65.8669C95.5024 65.2271 95.3245 64.5999 94.9885 64.0555C94.6526 63.511 94.1719 63.0706 93.6001 62.7836V62.8002Z" fill="white"/>
</g>
</g>
<defs>
<filter id="filter0_d_18_1176" x="0" y="0.000244141" width="140" height="140" filterUnits="userSpaceOnUse" color-interpolation-filters="sRGB">
<feFlood flood-opacity="0" result="BackgroundImageFix"/>
<feColorMatrix in="SourceAlpha" type="matrix" values="0 0 0 0 0 0 0 0 0 0 0 0 0 0 0 0 0 0 127 0" result="hardAlpha"/>
<feOffset dy="4"/>
<feGaussianBlur stdDeviation="10"/>
<feComposite in2="hardAlpha" operator="out"/>
<feColorMatrix type="matrix" values="0 0 0 0 0 0 0 0 0 0 0 0 0 0 0 0 0 0 0.15 0"/>
<feBlend mode="normal" in2="BackgroundImageFix" result="effect1_dropShadow_18_1176"/>
<feBlend mode="normal" in="SourceGraphic" in2="effect1_dropShadow_18_1176" result="shape"/>
</filter>
<filter id="filter1_d_18_1176" x="20" y="20.0002" width="100" height="100" filterUnits="userSpaceOnUse" color-interpolation-filters="sRGB">
<feFlood flood-opacity="0" result="BackgroundImageFix"/>
<feColorMatrix in="SourceAlpha" type="matrix" values="0 0 0 0 0 0 0 0 0 0 0 0 0 0 0 0 0 0 127 0" result="hardAlpha"/>
<feOffset dy="4"/>
<feGaussianBlur stdDeviation="10"/>
<feComposite in2="hardAlpha" operator="out"/>
<feColorMatrix type="matrix" values="0 0 0 0 0 0 0 0 0 0 0 0 0 0 0 0 0 0 0.1 0"/>
<feBlend mode="normal" in2="BackgroundImageFix" result="effect1_dropShadow_18_1176"/>
<feBlend mode="normal" in="SourceGraphic" in2="effect1_dropShadow_18_1176" result="shape"/>
</filter>
<linearGradient id="paint0_linear_18_1176" x1="5" y1="131" x2="135" y2="131" gradientUnits="userSpaceOnUse">
<stop stop-color="#ED6235"/>
<stop offset="0.963542" stop-color="#9D228E"/>
</linearGradient>
<linearGradient id="paint1_linear_18_1176" x1="70" y1="16.0002" x2="107.047" y2="116.955" gradientUnits="userSpaceOnUse">
<stop stop-color="white"/>
<stop offset="0.5" stop-color="#F3F3F3" stop-opacity="0.5"/>
<stop offset="1" stop-color="#3971FF" stop-opacity="0"/>
</linearGradient>
<clipPath id="clip0_18_1176">
<rect x="40" y="36.0002" width="60" height="60" rx="30" fill="white"/>
</clipPath>
</defs>
</svg>
