<svg width="67" height="76" viewBox="0 0 67 76" fill="none" xmlns="http://www.w3.org/2000/svg">
<mask id="mask0_353_1996" style="mask-type:alpha" maskUnits="userSpaceOnUse" x="0" y="0" width="67" height="76">
<path d="M9.66628 0C7.10262 0 4.64397 0.955073 2.83119 2.65512C1.01841 4.35516 0 6.66091 0 9.06513V63.4559C0 65.8602 1.01841 68.1659 2.83119 69.866C4.64397 71.566 7.10262 72.5211 9.66628 72.5211H25.4078C24.1768 71.1229 23.1121 69.6031 22.2324 67.9885H9.66628C8.38445 67.9885 7.15512 67.511 6.24873 66.661C5.34234 65.8109 4.83314 64.658 4.83314 63.4559V9.06513C4.83314 7.86302 5.34234 6.71015 6.24873 5.86012C7.15512 5.0101 8.38445 4.53257 9.66628 4.53257H38.6651C39.9469 4.53257 41.1763 5.0101 42.0827 5.86012C42.989 6.71015 43.4983 7.86302 43.4983 9.06513V31.8277C45.106 31.6918 46.7236 31.6918 48.3314 31.8277V9.06513C48.3314 6.66091 47.313 4.35516 45.5002 2.65512C43.6874 0.955073 41.2288 0 38.6651 0H9.66628ZM34.1461 42.7965C34.4942 43.9597 34.5908 45.1764 34.4303 46.3751C34.2699 47.5738 33.8555 48.7304 33.2116 49.7768C32.5677 50.8232 31.7073 51.7383 30.6809 52.4684C29.6545 53.1985 28.4828 53.7288 27.2347 54.0282L25.0067 54.563C24.8466 56.0953 24.8628 57.6392 25.055 59.1681L26.7466 59.5443C28.0276 59.829 29.233 60.3561 30.2891 61.0932C31.3451 61.8304 32.2295 62.762 32.8879 63.8311C33.5463 64.9001 33.965 66.084 34.1182 67.3102C34.2714 68.5364 34.1559 69.779 33.7788 70.9619L33.1698 72.8746C34.412 73.7993 35.7652 74.5879 37.2055 75.2225L38.7763 73.6633C39.6805 72.766 40.7706 72.0514 41.9798 71.5633C43.189 71.0752 44.4917 70.8239 45.8082 70.8247C47.1246 70.8256 48.427 71.0786 49.6354 71.5683C50.8439 72.0579 51.933 72.7739 52.8359 73.6723L54.4646 75.295C55.8808 74.6831 57.2099 73.9262 58.4375 73.0378L57.6835 70.5177C57.3347 69.3542 57.2375 68.137 57.3976 66.9378C57.5578 65.7385 57.972 64.5814 58.6159 63.5345C59.2599 62.4876 60.1206 61.5721 61.1474 60.8417C62.1741 60.1113 63.3463 59.5808 64.5949 59.2814L66.823 58.7511C66.9835 57.2174 66.9673 55.672 66.7747 54.1415L65.0879 53.7698C63.8059 53.4857 62.5994 52.9589 61.5425 52.2217C60.4855 51.4845 59.6003 50.5524 58.9413 49.4828C58.2823 48.4132 57.8634 47.2285 57.7103 46.0015C57.5571 44.7746 57.673 43.5312 58.0508 42.3478L58.6598 40.4396C57.4145 39.5139 56.0605 38.7246 54.6241 38.0872L53.0582 39.6464C52.1543 40.5446 51.0641 41.2602 49.8547 41.7491C48.6452 42.238 47.342 42.49 46.0249 42.4896C44.7079 42.4891 43.4049 42.2363 42.1958 41.7466C40.9867 41.2569 39.8971 40.5407 38.9938 39.6418L37.365 38.0192C35.9555 38.6291 34.6229 39.3847 33.3922 40.2719L34.1461 42.7965V42.7965ZM45.9148 61.1897C44.633 61.1897 43.4037 60.7121 42.4973 59.8621C41.5909 59.0121 41.0817 57.8592 41.0817 56.6571C41.0817 55.455 41.5909 54.3021 42.4973 53.4521C43.4037 52.6021 44.633 52.1245 45.9148 52.1245C47.1967 52.1245 48.426 52.6021 49.3324 53.4521C50.2388 54.3021 50.748 55.455 50.748 56.6571C50.748 57.8592 50.2388 59.0121 49.3324 59.8621C48.426 60.7121 47.1967 61.1897 45.9148 61.1897Z" fill="black"/>
</mask>
<g mask="url(#mask0_353_1996)">
<rect x="-46.3982" y="-33.8431" width="152.083" height="142.625" rx="5" fill="url(#paint0_linear_353_1996)"/>
</g>
<defs>
<linearGradient id="paint0_linear_353_1996" x1="-46.3982" y1="108.782" x2="105.685" y2="108.782" gradientUnits="userSpaceOnUse">
<stop stop-color="#ED6235"/>
<stop offset="0.963542" stop-color="#9D228E"/>
</linearGradient>
</defs>
</svg>
