<svg width="70" height="70" viewBox="0 0 70 70" fill="none" xmlns="http://www.w3.org/2000/svg">
<mask id="mask0_353_2019" style="mask-type:alpha" maskUnits="userSpaceOnUse" x="0" y="0" width="70" height="70">
<path d="M65.625 50.3125H54.6875V39.375H50.3125V50.3125H39.375V54.6875H50.3125V65.625H54.6875V54.6875H65.625V50.3125Z" fill="black"/>
<path d="M52.7778 25.9L55.3613 26.366C57.4546 26.7064 59.429 27.5668 61.1034 28.8685C62.663 30.1078 63.8853 31.7199 64.6576 33.5562C65.4299 35.3924 65.7272 37.3936 65.5222 39.375H69.9628C70.2332 35.3489 69.0108 31.3643 66.5291 28.1825C64.0474 25.0007 60.4805 22.8447 56.5097 22.1266C55.6811 17.8292 53.5833 13.8789 50.4873 10.7856C47.3912 7.69224 43.439 5.59798 39.1409 4.77314C36.318 4.22763 33.4152 4.24387 30.5985 4.82093C27.7818 5.39799 25.1065 6.52455 22.7255 8.1362C20.3445 9.74786 18.3045 11.813 16.7221 14.2136C15.1397 16.6141 14.046 19.303 13.5034 22.1266C9.37926 22.8725 5.69651 25.1674 3.20986 28.5411C0.723217 31.9148 -0.379007 36.1117 0.129064 40.2719C0.710166 44.3147 2.74341 48.0076 5.84886 50.6606C8.95431 53.3135 12.9195 54.745 17.0034 54.6875H30.625V50.3125H16.8394C13.974 50.3576 11.1825 49.4024 8.94538 47.6113C6.70829 45.8202 5.16559 43.3053 4.58281 40.4994C4.29107 38.9385 4.31086 37.3353 4.64104 35.7821C4.97122 34.2289 5.60528 32.7563 6.50673 31.449C7.40818 30.1418 8.55923 29.0257 9.89365 28.165C11.2281 27.3043 12.7195 26.7159 14.2822 26.4338L17.2331 25.8978L17.7013 23.4697C18.3585 19.8215 20.129 16.4662 22.7697 13.8647C25.4104 11.2631 28.7918 9.54295 32.4494 8.94033C34.6451 8.61458 36.8829 8.7111 39.0425 9.2247C42.3731 10.0502 45.3944 11.8201 47.7434 14.3215C50.0923 16.8229 51.6688 19.9494 52.2834 23.3253L52.7778 25.9Z" fill="black"/>
</mask>
<g mask="url(#mask0_353_2019)">
<rect x="-11" y="-11" width="91" height="91" rx="5" fill="url(#paint0_linear_353_2019)"/>
</g>
<defs>
<linearGradient id="paint0_linear_353_2019" x1="-11" y1="80" x2="80" y2="80" gradientUnits="userSpaceOnUse">
<stop stop-color="#ED6235"/>
<stop offset="0.963542" stop-color="#9D228E"/>
</linearGradient>
</defs>
</svg>
